<?xml version="1.0" encoding="utf-8"?>
<!-- Generator: Adobe Illustrator 16.0.0, SVG Export Plug-In . SVG Version: 6.00 Build 0)  -->
<!DOCTYPE svg PUBLIC "-//W3C//DTD SVG 1.1//EN" "http://www.w3.org/Graphics/SVG/1.1/DTD/svg11.dtd">
<svg version="1.1" id="Capa_1" xmlns="http://www.w3.org/2000/svg" xmlns:xlink="http://www.w3.org/1999/xlink" x="0px" y="0px"
	 width="1170px" height="140px" viewBox="0 0 1170 140" enable-background="new 0 0 1170 140" xml:space="preserve">
<g>
	<path fill="#0090D1" d="M370.559-192.852l2.023-2.424c1.4,1.156,2.867,1.891,4.646,1.891c1.401,0,2.245-0.558,2.245-1.469v-0.043
		c0-0.868-0.533-1.313-3.135-1.98c-3.134-0.799-5.158-1.667-5.158-4.758v-0.045c0-2.823,2.269-4.689,5.446-4.689
		c2.269,0,4.202,0.711,5.781,1.979l-1.777,2.58c-1.379-0.956-2.735-1.534-4.047-1.534c-1.311,0-2,0.599-2,1.356v0.044
		c0,1.022,0.667,1.356,3.357,2.044c3.157,0.824,4.935,1.957,4.935,4.669v0.044c0,3.091-2.355,4.824-5.713,4.824
		C374.805-190.363,372.427-191.187,370.559-192.852z"/>
	<path fill="#0090D1" d="M386.005-206.147h3.423v15.563h-3.423V-206.147z"/>
	<path fill="#0090D1" d="M392.252-192.852l2.023-2.424c1.4,1.156,2.867,1.891,4.646,1.891c1.4,0,2.244-0.558,2.244-1.469v-0.043
		c0-0.868-0.533-1.313-3.135-1.98c-3.134-0.799-5.157-1.667-5.157-4.758v-0.045c0-2.823,2.268-4.689,5.446-4.689
		c2.268,0,4.201,0.711,5.78,1.979l-1.777,2.58c-1.378-0.956-2.735-1.534-4.046-1.534c-1.312,0-2.001,0.599-2.001,1.356v0.044
		c0,1.022,0.667,1.356,3.357,2.044c3.157,0.824,4.936,1.957,4.936,4.669v0.044c0,3.091-2.356,4.824-5.714,4.824
		C396.496-190.363,394.119-191.187,392.252-192.852z"/>
	<path fill="#0090D1" d="M410.833-202.99h-4.735v-3.157h12.894v3.157h-4.736v12.405h-3.422V-202.99z"/>
	<path fill="#0090D1" d="M421.609-206.147h11.738v3.046h-8.337v3.157h7.335v3.046h-7.335v3.268h8.448v3.046h-11.85V-206.147z"/>
	<path fill="#0090D1" d="M436.501-206.147h3.689l4.091,6.581l4.09-6.581h3.691v15.563h-3.402v-10.161l-4.379,6.649h-0.089
		l-4.335-6.581v10.093H436.5L436.501-206.147L436.501-206.147z"/>
	<path fill="#0090D1" d="M461.127-206.259h3.157l6.669,15.673h-3.578l-1.422-3.49h-6.582l-1.422,3.49h-3.489L461.127-206.259z
		 M464.729-197.1l-2.067-5.046l-2.068,5.046H464.729z"/>
	<path fill="#0090D1" d="M480.016-206.147h6.068c4.891,0,8.271,3.357,8.271,7.737v0.045c0,4.38-3.38,7.78-8.271,7.78h-6.068
		V-206.147z M486.084-193.674c2.802,0,4.692-1.891,4.692-4.648v-0.043c0-2.757-1.891-4.691-4.692-4.691h-2.646v9.383H486.084z"/>
	<path fill="#0090D1" d="M497.396-206.147h11.738v3.046h-8.337v3.157h7.336v3.046h-7.336v3.268h8.448v3.046h-11.85V-206.147z"/>
	<path fill="#0090D1" d="M518.264-198.322v-0.043c0-4.425,3.335-8.049,8.114-8.049c2.935,0,4.69,0.979,6.137,2.4l-2.18,2.513
		c-1.201-1.091-2.424-1.757-3.98-1.757c-2.622,0-4.512,2.179-4.512,4.846v0.046c0,2.667,1.845,4.891,4.512,4.891
		c1.778,0,2.868-0.711,4.091-1.823l2.179,2.199c-1.601,1.713-3.379,2.779-6.381,2.779
		C521.665-190.318,518.264-193.854,518.264-198.322z"/>
	<path fill="#0090D1" d="M534.221-198.322v-0.043c0-4.425,3.49-8.049,8.293-8.049s8.248,3.58,8.248,8.002v0.046
		c0,4.423-3.49,8.048-8.292,8.048C537.667-190.318,534.221-193.896,534.221-198.322z M547.182-198.322v-0.043
		c0-2.668-1.956-4.892-4.712-4.892c-2.757,0-4.668,2.179-4.668,4.847v0.045c0,2.667,1.956,4.891,4.712,4.891
		C545.271-193.475,547.182-195.654,547.182-198.322z"/>
	<path fill="#0090D1" d="M553.802-206.147h3.157l7.291,9.583v-9.583h3.38v15.563h-2.911l-7.537-9.893v9.893h-3.378v-15.563H553.802z
		"/>
	<path fill="#0090D1" d="M570.292-192.852l2.023-2.424c1.399,1.156,2.867,1.891,4.646,1.891c1.402,0,2.245-0.558,2.245-1.469v-0.043
		c0-0.868-0.533-1.313-3.134-1.98c-3.135-0.799-5.158-1.667-5.158-4.758v-0.045c0-2.823,2.268-4.689,5.446-4.689
		c2.269,0,4.202,0.711,5.78,1.979l-1.777,2.58c-1.378-0.956-2.735-1.534-4.046-1.534c-1.312,0-2.001,0.599-2.001,1.356v0.044
		c0,1.022,0.667,1.356,3.357,2.044c3.157,0.824,4.936,1.957,4.936,4.669v0.044c0,3.091-2.356,4.824-5.713,4.824
		C574.538-190.363,572.158-191.187,570.292-192.852z"/>
	<path fill="#0090D1" d="M585.339-197.255v-8.893h3.423v8.805c0,2.535,1.267,3.845,3.357,3.845c2.09,0,3.356-1.267,3.356-3.733
		v-8.916h3.425v8.781c0,4.713-2.646,7.025-6.824,7.025C587.895-190.34,585.339-192.674,585.339-197.255z"/>
	<path fill="#0090D1" d="M602.385-206.147h3.422v12.45h7.759v3.112h-11.183v-15.563H602.385z"/>
	<path fill="#0090D1" d="M617.543-202.99h-4.735v-3.157h12.894v3.157h-4.736v12.405h-3.422V-202.99z"/>
	<path fill="#0090D1" d="M631.655-206.259h3.157l6.669,15.673h-3.578l-1.423-3.49h-6.581l-1.422,3.49h-3.491L631.655-206.259z
		 M635.257-197.1l-2.067-5.046l-2.068,5.046H635.257z"/>
	<path fill="#0090D1" d="M642.589-192.852l2.023-2.424c1.4,1.156,2.867,1.891,4.646,1.891c1.401,0,2.245-0.558,2.245-1.469v-0.043
		c0-0.868-0.534-1.313-3.136-1.98c-3.134-0.799-5.157-1.667-5.157-4.758v-0.045c0-2.823,2.269-4.689,5.446-4.689
		c2.269,0,4.202,0.711,5.781,1.979l-1.778,2.58c-1.378-0.956-2.734-1.534-4.046-1.534s-2,0.599-2,1.356v0.044
		c0,1.022,0.667,1.356,3.356,2.044c3.157,0.824,4.936,1.957,4.936,4.669v0.044c0,3.091-2.355,4.824-5.713,4.824
		C646.834-190.363,644.457-191.187,642.589-192.852z"/>
	<path fill="#0090D1" d="M669.882-206.259h3.157l6.669,15.673h-3.578l-1.423-3.49h-6.581l-1.422,3.49h-3.489L669.882-206.259z
		 M673.483-197.1l-2.067-5.046l-2.068,5.046H673.483z"/>
	<path fill="#0090D1" d="M680.415-198.322v-0.043c0-4.425,3.335-8.049,8.115-8.049c2.935,0,4.69,0.979,6.136,2.4l-2.179,2.513
		c-1.202-1.091-2.424-1.757-3.981-1.757c-2.622,0-4.511,2.179-4.511,4.846v0.046c0,2.667,1.845,4.891,4.511,4.891
		c1.778,0,2.869-0.711,4.091-1.823l2.18,2.199c-1.602,1.713-3.38,2.779-6.381,2.779
		C683.815-190.318,680.415-193.854,680.415-198.322z"/>
	<path fill="#0090D1" d="M697.506-206.147h7.115c1.979,0,3.512,0.556,4.535,1.579c0.866,0.865,1.333,2.088,1.333,3.558v0.043
		c0,2.513-1.355,4.091-3.334,4.824l3.801,5.558h-4.001l-3.335-4.98h-2.69v4.98h-3.422v-15.562H697.506z M704.397-198.588
		c1.668,0,2.624-0.89,2.624-2.201v-0.044c0-1.467-1.023-2.224-2.691-2.224h-3.401v4.469H704.397z"/>
	<path fill="#0090D1" d="M713.574-206.147h11.739v3.046h-8.337v3.157h7.335v3.046h-7.335v3.268h8.447v3.046h-11.85V-206.147z"/>
	<path fill="#0090D1" d="M728.465-206.147h6.069c4.891,0,8.27,3.357,8.27,7.737v0.045c0,4.38-3.379,7.78-8.27,7.78h-6.069V-206.147z
		 M734.534-193.674c2.802,0,4.691-1.891,4.691-4.648v-0.043c0-2.757-1.89-4.691-4.691-4.691h-2.646v9.383H734.534z"/>
	<path fill="#0090D1" d="M746.001-206.147h3.422v15.563h-3.422V-206.147z"/>
	<path fill="#0090D1" d="M756.936-202.99H752.2v-3.157h12.894v3.157h-4.736v12.405h-3.422V-202.99z"/>
	<path fill="#0090D1" d="M771.049-206.259h3.157l6.669,15.673h-3.578l-1.422-3.49h-6.582l-1.422,3.49h-3.489L771.049-206.259z
		 M774.65-197.1l-2.067-5.046l-2.068,5.046H774.65z"/>
	<path fill="#0090D1" d="M783.271-206.147h6.068c4.891,0,8.271,3.357,8.271,7.737v0.045c0,4.38-3.38,7.78-8.271,7.78h-6.068
		V-206.147z M789.339-193.674c2.802,0,4.69-1.891,4.69-4.648v-0.043c0-2.757-1.889-4.691-4.69-4.691h-2.646v9.383H789.339z"/>
	<path fill="#0090D1" d="M799.961-198.322v-0.043c0-4.425,3.49-8.049,8.293-8.049s8.249,3.58,8.249,8.002v0.046
		c0,4.423-3.491,8.048-8.293,8.048C803.407-190.318,799.961-193.896,799.961-198.322z M812.922-198.322v-0.043
		c0-2.668-1.956-4.892-4.712-4.892c-2.757,0-4.668,2.179-4.668,4.847v0.045c0,2.667,1.956,4.891,4.712,4.891
		C811.011-193.475,812.922-195.654,812.922-198.322z"/>
	<path fill="#0090D1" d="M818.363-192.852l2.023-2.424c1.4,1.156,2.867,1.891,4.646,1.891c1.401,0,2.244-0.558,2.244-1.469v-0.043
		c0-0.868-0.533-1.313-3.135-1.98c-3.133-0.799-5.157-1.667-5.157-4.758v-0.045c0-2.823,2.269-4.689,5.446-4.689
		c2.269,0,4.202,0.711,5.781,1.979l-1.778,2.58c-1.378-0.956-2.734-1.534-4.046-1.534s-2,0.599-2,1.356v0.044
		c0,1.022,0.666,1.356,3.357,2.044c3.156,0.824,4.935,1.957,4.935,4.669v0.044c0,3.091-2.355,4.824-5.713,4.824
		C822.609-190.363,820.231-191.187,818.363-192.852z"/>
	<path fill="#0090D1" d="M839.633-198.322v-0.043c0-4.425,3.49-8.049,8.292-8.049c4.803,0,8.249,3.58,8.249,8.002v0.046
		c0,4.423-3.49,8.048-8.293,8.048S839.633-193.896,839.633-198.322z M852.593-198.322v-0.043c0-2.668-1.955-4.892-4.713-4.892
		c-2.756,0-4.667,2.179-4.667,4.847v0.045c0,2.667,1.956,4.891,4.712,4.891C850.682-193.475,852.593-195.654,852.593-198.322z"/>
	<path fill="#0090D1" d="M859.213-206.147h3.688l4.091,6.581l4.091-6.581h3.69v15.563h-3.401v-10.161l-4.38,6.649h-0.089
		l-4.335-6.581v10.093h-3.357v-15.563H859.213z"/>
	<path fill="#0090D1" d="M877.814-198.322v-0.043c0-4.425,3.335-8.049,8.114-8.049c2.936,0,4.69,0.979,6.137,2.4l-2.179,2.513
		c-1.202-1.091-2.424-1.757-3.981-1.757c-2.622,0-4.511,2.179-4.511,4.846v0.046c0,2.667,1.844,4.891,4.511,4.891
		c1.778,0,2.868-0.711,4.091-1.823l2.18,2.199c-1.602,1.713-3.38,2.779-6.381,2.779
		C881.215-190.318,877.814-193.854,877.814-198.322z"/>
</g>
<g>
	<g>
		<path fill="#E53328" d="M1025.368,69.966c0,0-3.501,3.588-8.457,3.588c-1.417,0-2.694-0.832-2.084-2.724
			c-0.779,0.975-0.945,2.255-0.945,2.448c0,0.196-0.167,2.029,3.198,2.029c3.364,0,8.038-2.057,9.543-4.032L1025.368,69.966z"/>
		<path fill="#243487" d="M1018.832,77.293v1.947c3.176-0.253,13.612-4.238,13.612-8.522c0-1.642-1.582-2.697-2.921-3.283
			c0,0,1.726,0.919,1.726,2.479C1031.249,71.471,1028.903,75.123,1018.832,77.293"/>
		<path fill="#007C32" d="M1029.04,77.958c-2.084,1.839-7.315,4.398-12.933,4.398c-5.149,0-5.593-1.754-6.093-2.395
			c0,0-0.055,3.952,6.701,3.952c6.76,0,12.856-3.533,13.692-4.647L1029.04,77.958z"/>
		<path fill="#E53328" d="M1020.473,85.89c4.649-0.278,18.65-4.843,16.953-12.773c0,0,0.78,0.979,0.78,2.452
			c0,6.76-11.778,12.298-17.733,12.298V85.89L1020.473,85.89z"/>
		<path fill="#007C32" d="M1039.28,83.104c-3.312,8.712-10.295,10.017-12.77,10.017v2.058
			C1034.302,95.179,1039.28,88.06,1039.28,83.104"/>
		<path fill="#243487" d="M1032.184,86.603c-2.948,1.923-9.204,3.681-14.799,3.681c-2.477,0-4.284-0.807-4.867-1.336
			c0,0,1.278,2.958,7.37,2.958c8.04,0,13.58-3.438,13.944-3.97L1032.184,86.603z"/>
		<path fill="#1D1D1B" d="M1011.286,104.887l-0.214-0.038l-0.864-2.815c-0.115-0.367-0.167-0.629-0.593-0.724v-0.151h1.643v0.151
			c-0.552,0.133-0.474,0.268-0.286,0.885l0.454,1.523h0.014l0.661-1.904c-0.099-0.317-0.254-0.428-0.566-0.504v-0.149h1.685v0.149
			c-0.441,0.122-0.536,0.127-0.32,0.83l0.492,1.635h0.014l0.176-0.585c0.101-0.307,0.409-1.251,0.409-1.516
			c0-0.286-0.246-0.286-0.46-0.362v-0.149h1.421v0.149c-0.464,0.145-0.524,0.248-0.752,0.906l-0.942,2.673l-0.212-0.04l-0.811-2.659
			h-0.01L1011.286,104.887z"/>
		<path fill="#1D1D1B" d="M1015.446,102.191l0.125-1.2h0.104c0.055,0.093,0.129,0.139,0.206,0.157
			c0.088,0.018,0.173,0.01,0.268,0.01h2.221c0.191,0,0.367,0.026,0.47-0.167h0.115l0.117,1.2l-0.147,0.024
			c-0.206-0.758-0.599-0.83-1.32-0.83v2.219c0,0.966,0.066,0.93,0.788,1.034v0.151h-2.268v-0.151
			c0.72-0.104,0.786-0.068,0.786-1.034v-2.219c-0.72,0-1.103,0.07-1.317,0.83L1015.446,102.191z"/>
		<path fill="#1D1D1B" d="M1023.592,102.947c0,1.188-0.884,1.932-2.037,1.932c-1.143,0-2.014-0.716-2.014-1.895
			c0-1.157,0.879-1.915,2.01-1.915C1022.651,101.069,1023.592,101.721,1023.592,102.947 M1020.39,102.896
			c0,0.752,0.349,1.739,1.233,1.739c0.83,0,1.115-0.862,1.115-1.559c0-0.759-0.355-1.763-1.252-1.763
			C1020.68,101.313,1020.39,102.227,1020.39,102.896"/>
		<path fill="#1D1D1B" d="M1030.719,102.947c0,1.188-0.877,1.932-2.035,1.932c-1.141,0-2.014-0.716-2.014-1.895
			c0-1.157,0.881-1.915,2.01-1.915C1029.781,101.069,1030.719,101.721,1030.719,102.947 M1027.521,102.896
			c0,0.752,0.347,1.739,1.235,1.739c0.826,0,1.114-0.862,1.114-1.559c0-0.759-0.356-1.763-1.255-1.763
			C1027.811,101.313,1027.521,102.227,1027.521,102.896"/>
		<path fill="#1D1D1B" d="M1034.775,101.857h-0.01l-1.233,2.986h-0.157l-1.193-2.873h-0.01l-0.119,2.081
			c-0.034,0.486,0.214,0.486,0.619,0.587v0.151h-1.574v-0.151c0.387-0.117,0.49-0.133,0.559-0.559l0.311-2.285
			c0.042-0.395-0.246-0.401-0.557-0.485v-0.151h1.381v0.108c-0.134,0.188,0.084,0.589,0.157,0.766l0.743,1.726l0.847-1.989
			c0.063-0.146,0.179-0.364,0.042-0.502v-0.108h1.485v0.151c-0.523,0.11-0.608,0.195-0.584,0.709l0.093,1.724
			c0.036,0.608,0.04,0.792,0.688,0.896v0.151h-2.025v-0.151c0.718-0.083,0.676-0.262,0.642-0.939L1034.775,101.857z"/>
		<path fill="#1D1D1B" d="M1039.927,102.371h-0.157c-0.125-0.603-0.481-1.058-1.145-1.058c-0.873,0-1.31,0.798-1.31,1.618
			c0,0.778,0.497,1.703,1.358,1.703c0.719,0,1.066-0.572,1.31-1.169l0.155,0.053l-0.328,1.122c-0.377,0.167-0.772,0.238-1.182,0.238
			c-1.126,0-2.166-0.625-2.166-1.853c0-1.258,1.064-1.957,2.211-1.957c0.429,0,0.864,0.079,1.253,0.276V102.371L1039.927,102.371z"
			/>
		<polygon fill="#A1B1C2" points="1062.937,76.242 1062.937,68.822 1059.904,76.125 1059.367,76.125 1056.334,68.882 
			1056.334,76.242 1055.736,76.242 1055.736,67.944 1056.591,67.944 1059.656,75.319 1062.665,67.944 1063.533,67.944 
			1063.533,76.242 		"/>
		<path fill="#A1B1C2" d="M1068.165,76.395c-0.798,0-1.618-0.326-2.188-0.898c-0.892-0.903-0.974-2.225-0.974-3.407
			c0-1.185,0.082-2.493,0.974-3.394c0.57-0.574,1.391-0.902,2.188-0.902c1.648,0,2.821,1.159,2.952,2.691h-0.635
			c-0.106-1.23-1.008-2.094-2.317-2.094c-0.739,0-1.3,0.256-1.743,0.714c-0.752,0.772-0.786,1.989-0.786,2.985
			c0,0.994,0.046,2.224,0.798,2.994c0.455,0.468,1.044,0.717,1.731,0.717c1.31,0,2.211-0.866,2.317-2.096h0.633
			C1070.986,75.237,1069.813,76.395,1068.165,76.395"/>
		<polygon fill="#A1B1C2" points="1074.497,76.242 1074.497,69.433 1072.593,70.814 1072.593,69.121 1074.721,67.588 
			1076.058,67.588 1076.058,76.242 		"/>
		<polygon fill="#A1B1C2" points="1080.35,76.242 1080.35,69.433 1078.441,70.814 1078.441,69.121 1080.576,67.588 1081.906,67.588 
			1081.906,76.242 		"/>
		<path fill="#1D1D1B" d="M1061.686,88.398c-0.701,0.561-1.574,0.671-2.438,0.671h-3.437v-9.704h3.437
			c0.726,0,1.491,0.109,2.11,0.519c0.614,0.409,0.997,1.137,0.997,1.862c0,1.054-0.438,1.971-1.544,2.271
			c1.201,0.285,1.766,1.261,1.766,2.369C1062.576,87.151,1062.302,87.904,1061.686,88.398 M1059.247,80.034h-2.722v3.624h2.722
			c1.338,0,2.384-0.313,2.384-1.858C1061.631,80.443,1060.426,80.034,1059.247,80.034 M1059.247,84.346h-2.722v4.053h2.722
			c1.326,0,2.6-0.387,2.6-2.069C1061.847,84.744,1060.657,84.346,1059.247,84.346"/>
		<path fill="#1D1D1B" d="M1068.104,89.245c-2.328,0-3.438-1.601-3.438-3.734v-6.146h0.714v6.159c0,1.683,0.82,3.037,2.725,3.037
			c1.9,0,2.735-1.354,2.735-3.037v-6.159h0.715v6.146C1071.555,87.645,1070.43,89.245,1068.104,89.245"/>
		<polygon fill="#1D1D1B" points="1074.336,89.069 1074.336,79.365 1080.545,79.365 1080.545,80.049 1075.058,80.049 
			1075.058,83.608 1079.887,83.608 1079.887,84.291 1075.058,84.291 1075.058,88.381 1080.545,88.381 1080.545,89.069 		"/>
		<polygon fill="#1D1D1B" points="1089.099,89.069 1083.478,80.474 1083.478,89.069 1082.765,89.069 1082.765,79.365 
			1083.576,79.365 1089.212,87.943 1089.212,79.365 1089.909,79.365 1089.909,89.069 		"/>
		<path fill="#1D1D1B" d="M1098.384,88.258c-0.604,0.578-1.438,0.987-2.491,0.987c-1.058,0-1.889-0.409-2.491-0.987
			c-1.096-1.051-1.221-2.652-1.221-4.051c0-1.392,0.125-2.979,1.221-4.037c0.603-0.572,1.434-0.983,2.491-0.983
			c1.053,0,1.889,0.411,2.491,0.983c1.095,1.056,1.215,2.644,1.215,4.037C1099.599,85.605,1099.479,87.207,1098.384,88.258
			 M1097.861,80.636c-0.504-0.494-1.219-0.752-1.971-0.752c-0.75,0-1.463,0.258-1.973,0.752c-0.956,0.919-0.998,2.424-0.998,3.571
			c0,1.152,0.042,2.668,0.998,3.587c0.51,0.494,1.223,0.752,1.973,0.752c0.752,0,1.465-0.258,1.971-0.752
			c0.96-0.919,1-2.435,1-3.587C1098.861,83.06,1098.821,81.555,1097.861,80.636"/>
		<path fill="#1D1D1B" d="M1107.415,88.302c-0.653,0.643-1.629,0.941-2.749,0.941c-1.108,0-2.066-0.354-2.709-1.038
			c-0.481-0.508-0.809-1.191-0.875-1.931h0.738c0.066,0.576,0.34,1.11,0.711,1.493c0.521,0.534,1.326,0.792,2.135,0.792
			c0.834,0,1.671-0.22,2.202-0.726c0.343-0.328,0.575-0.779,0.575-1.395c0-0.931-0.724-1.737-1.887-1.889l-1.808-0.233
			c-1.371-0.18-2.381-0.959-2.381-2.448c0-0.809,0.353-1.385,0.847-1.835c0.603-0.546,1.489-0.852,2.396-0.852
			c1.04,0,2.078,0.427,2.628,1.069c0.409,0.479,0.682,0.984,0.737,1.682h-0.723c-0.071-0.492-0.222-0.861-0.534-1.229
			c-0.424-0.521-1.222-0.833-2.108-0.833c-0.701,0-1.37,0.176-1.85,0.585c-0.369,0.33-0.655,0.78-0.655,1.413
			c0,1.146,0.822,1.586,1.711,1.696l1.834,0.231c1.505,0.192,2.531,1.272,2.531,2.643
			C1108.183,87.288,1107.868,87.849,1107.415,88.302"/>
		<path fill="#1D1D1B" d="M1119.342,89.069l-0.985-2.562h-4.696l-0.957,2.562h-0.741l3.684-9.704h0.697l3.721,9.704H1119.342z
			 M1115.986,80.351l-2.066,5.488h4.175L1115.986,80.351z"/>
		<rect x="1121.655" y="79.365" fill="#1D1D1B" width="0.726" height="9.704"/>
		<path fill="#1D1D1B" d="M1130.139,84.757l1.973,4.311h-0.78l-1.902-4.134h-3.378v4.134h-0.713v-9.704h3.543
			c2.122,0,3.271,1.11,3.271,2.794C1132.151,83.429,1131.355,84.428,1130.139,84.757 M1128.881,80.034h-2.832v4.241h2.832
			c1.603,0,2.531-0.738,2.531-2.12C1131.412,80.774,1130.483,80.034,1128.881,80.034"/>
		<polygon fill="#1D1D1B" points="1134.316,89.069 1134.316,79.365 1140.529,79.365 1140.529,80.049 1135.04,80.049 1135.04,83.608 
			1139.871,83.608 1139.871,84.291 1135.04,84.291 1135.04,88.381 1140.529,88.381 1140.529,89.069 		"/>
		<path fill="#1D1D1B" d="M1148.223,88.302c-0.655,0.643-1.629,0.941-2.751,0.941c-1.108,0-2.063-0.354-2.707-1.038
			c-0.481-0.508-0.81-1.191-0.881-1.931h0.74c0.068,0.576,0.343,1.11,0.711,1.493c0.522,0.534,1.326,0.792,2.137,0.792
			c0.838,0,1.671-0.22,2.2-0.726c0.347-0.328,0.575-0.779,0.575-1.395c0-0.931-0.722-1.737-1.887-1.889l-1.808-0.233
			c-1.364-0.18-2.377-0.959-2.377-2.448c0-0.809,0.35-1.385,0.845-1.835c0.603-0.546,1.493-0.852,2.395-0.852
			c1.04,0,2.082,0.427,2.628,1.069c0.411,0.479,0.682,0.984,0.74,1.682h-0.726c-0.065-0.492-0.22-0.861-0.534-1.229
			c-0.424-0.521-1.216-0.833-2.108-0.833c-0.697,0-1.368,0.176-1.846,0.585c-0.371,0.33-0.659,0.78-0.659,1.413
			c0,1.146,0.822,1.586,1.715,1.696l1.83,0.231c1.506,0.192,2.533,1.272,2.533,2.643
			C1148.988,87.288,1148.674,87.849,1148.223,88.302"/>
		<path fill="#A1B1C2" d="M1055.788,104.895v-1.9l5.144-6.133c0.457-0.532,0.684-1.157,0.684-1.688c0-0.933-0.585-1.65-1.671-1.65
			c-1.119,0-1.766,0.853-1.766,1.896h-2.429c0.018-2.315,1.502-3.968,4.216-3.968c2.256,0,4.062,1.385,4.062,3.704
			c0,1.177-0.703,2.334-1.441,3.229l-3.644,4.365h5.276v2.146h-8.431V104.895z"/>
		<path fill="#A1B1C2" d="M1073.159,103.961c-0.682,0.666-1.653,1.18-3.073,1.18c-1.424,0-2.395-0.514-3.08-1.18
			c-1.366-1.31-1.572-3.509-1.572-5.675c0-2.163,0.206-4.369,1.572-5.676c0.686-0.663,1.654-1.16,3.08-1.16
			c1.42,0,2.39,0.497,3.073,1.16c1.366,1.309,1.574,3.513,1.574,5.676C1074.733,100.452,1074.525,102.651,1073.159,103.961
			 M1070.086,93.633c-2.449,0-2.243,2.946-2.243,4.653c0,1.711-0.206,4.651,2.243,4.651c2.448,0,2.238-2.94,2.238-4.651
			C1072.324,96.579,1072.534,93.633,1070.086,93.633"/>
		<polygon fill="#A1B1C2" points="1079.086,104.895 1079.086,94.509 1076.18,96.613 1076.18,94.031 1079.427,91.695 
			1081.459,91.695 1081.459,104.895 		"/>
		<polygon fill="#A1B1C2" points="1086.984,104.895 1084.421,104.895 1089.585,93.826 1083.032,93.826 1083.032,91.695 
			1092.13,91.695 1092.13,93.595 		"/>
		<polygon fill="#1D1D1B" points="1047.81,111.023 1048.194,111.023 1048.194,60.607 1047.81,60.607 1047.727,60.607 
			1047.727,111.023 		"/>
	</g>
</g>
<g>
	<path fill="#5BC4F1" d="M808.96,109.387h2.218c0.546,0,0.975,0.149,1.248,0.422c0.218,0.219,0.328,0.485,0.328,0.812v0.015
		c0,0.536-0.288,0.84-0.628,1.027c0.553,0.212,0.892,0.534,0.892,1.173v0.015c0,0.874-0.709,1.312-1.785,1.312h-2.272V109.387z
		 M811.709,110.796c0-0.313-0.245-0.49-0.688-0.49h-1.035v1.01h0.968c0.463,0,0.757-0.149,0.757-0.504L811.709,110.796
		L811.709,110.796z M811.197,112.188h-1.212v1.052h1.247c0.462,0,0.742-0.167,0.742-0.521v-0.013
		C811.975,112.386,811.736,112.188,811.197,112.188z"/>
	<path fill="#5BC4F1" d="M814.695,112.113v-2.727h1.051v2.699c0,0.777,0.389,1.181,1.028,1.181c0.643,0,1.032-0.389,1.032-1.146
		v-2.733h1.05v2.692c0,1.447-0.812,2.155-2.094,2.155S814.695,113.519,814.695,112.113z"/>
	<path fill="#5BC4F1" d="M820.812,109.387h3.601v0.934h-2.558v0.969h2.251v0.932h-2.251v1.006h2.591v0.935h-3.634V109.387
		L820.812,109.387z"/>
	<path fill="#5BC4F1" d="M826.268,109.387h0.968l2.235,2.938v-2.938h1.037v4.772h-0.893l-2.313-3.033v3.033h-1.035V109.387z"/>
	<path fill="#5BC4F1" d="M832.328,111.785v-0.014c0-1.356,1.069-2.469,2.542-2.469c1.475,0,2.531,1.1,2.531,2.454v0.015
		c0,1.356-1.072,2.469-2.545,2.469S832.328,113.144,832.328,111.785z M836.304,111.785v-0.014c0-0.818-0.601-1.5-1.447-1.5
		c-0.845,0-1.431,0.669-1.431,1.487v0.013c0,0.818,0.6,1.501,1.447,1.501C835.718,113.272,836.304,112.605,836.304,111.785z"/>
	<path fill="#5BC4F1" d="M838.859,113.464l0.62-0.745c0.43,0.354,0.881,0.58,1.426,0.58c0.428,0,0.688-0.171,0.688-0.451v-0.013
		c0-0.266-0.165-0.402-0.962-0.608c-0.961-0.244-1.582-0.51-1.582-1.457v-0.015c0-0.866,0.696-1.438,1.672-1.438
		c0.695,0,1.29,0.218,1.773,0.606l-0.546,0.792c-0.423-0.294-0.838-0.47-1.241-0.47c-0.401,0-0.613,0.184-0.613,0.416v0.014
		c0,0.314,0.204,0.415,1.03,0.627c0.969,0.252,1.514,0.601,1.514,1.433v0.013c0,0.948-0.723,1.48-1.754,1.48
		C840.161,114.228,839.432,113.976,838.859,113.464z"/>
	<path fill="#5BC4F1" d="M849.005,109.351h0.969l2.046,4.809h-1.097l-0.437-1.07h-2.019l-0.436,1.07h-1.07L849.005,109.351z
		 M850.109,112.16l-0.635-1.548l-0.633,1.548H850.109z"/>
	<path fill="#5BC4F1" d="M853.689,109.387h1.051v4.772h-1.051V109.387z"/>
	<path fill="#5BC4F1" d="M856.819,109.387h2.183c0.608,0,1.078,0.17,1.391,0.483c0.268,0.265,0.408,0.642,0.408,1.091v0.014
		c0,0.769-0.416,1.254-1.022,1.479l1.166,1.705h-1.226l-1.024-1.529h-0.825v1.529h-1.051L856.819,109.387L856.819,109.387z
		 M858.933,111.705c0.512,0,0.806-0.274,0.806-0.678v-0.014c0-0.45-0.314-0.682-0.826-0.682h-1.044v1.371h1.064V111.705z"/>
	<path fill="#5BC4F1" d="M862.636,109.387h3.601v0.934h-2.558v0.969h2.249v0.932h-2.249v1.006h2.591v0.935h-3.635L862.636,109.387
		L862.636,109.387z"/>
	<path fill="#5BC4F1" d="M867.764,113.464l0.618-0.745c0.432,0.354,0.881,0.58,1.426,0.58c0.431,0,0.688-0.171,0.688-0.451v-0.013
		c0-0.266-0.162-0.402-0.96-0.608c-0.961-0.244-1.582-0.51-1.582-1.457v-0.015c0-0.866,0.695-1.438,1.672-1.438
		c0.695,0,1.287,0.218,1.772,0.606l-0.545,0.792c-0.423-0.294-0.839-0.47-1.241-0.47c-0.403,0-0.614,0.184-0.614,0.416v0.014
		c0,0.314,0.203,0.415,1.029,0.627c0.97,0.252,1.515,0.601,1.515,1.433v0.013c0,0.948-0.722,1.48-1.753,1.48
		C869.064,114.228,868.337,113.976,867.764,113.464z"/>
	<path fill="#5BC4F1" d="M876.033,113.327l1.589-1.304c0.594-0.49,0.826-0.75,0.826-1.144c0-0.404-0.268-0.622-0.643-0.622
		c-0.365,0-0.619,0.205-0.974,0.643l-0.737-0.595c0.471-0.641,0.929-0.987,1.781-0.987c0.988,0,1.642,0.578,1.642,1.472v0.014
		c0,0.8-0.409,1.193-1.254,1.849l-0.778,0.601h2.08v0.906h-3.532V113.327L876.033,113.327z"/>
	<path fill="#5BC4F1" d="M880.794,111.785v-0.014c0-1.385,0.858-2.469,2.126-2.469c1.263,0,2.115,1.071,2.115,2.454v0.015
		c0,1.386-0.853,2.469-2.128,2.469S880.794,113.17,880.794,111.785z M883.957,111.785v-0.014c0-0.865-0.423-1.521-1.051-1.521
		s-1.037,0.635-1.037,1.507v0.015c0,0.874,0.416,1.521,1.051,1.521S883.957,112.651,883.957,111.785z"/>
	<path fill="#5BC4F1" d="M887.469,110.415l-0.831,0.205l-0.218-0.86l1.369-0.411h0.717v4.809h-1.037V110.415L887.469,110.415z"/>
	<path fill="#5BC4F1" d="M892.862,110.294h-2.243v-0.907h3.437v0.792l-2.142,3.98h-1.187L892.862,110.294z"/>
</g>
<g>
	<path fill="#5BC4F1" d="M809.649,94.944l-0.863,0.214l-0.229-0.893l1.424-0.426h0.744v4.994h-1.076L809.649,94.944L809.649,94.944z
		"/>
	<path fill="#5BC4F1" d="M813.325,94.944l-0.864,0.214l-0.227-0.893l1.424-0.426h0.742v4.994h-1.075V94.944L813.325,94.944z"/>
	<path fill="#5BC4F1" d="M816.182,94.118h0.318l0.671,1.576h-0.36l-0.143-0.351h-0.663l-0.141,0.351h-0.352L816.182,94.118z
		 M816.544,95.039l-0.207-0.508l-0.206,0.508H816.544z"/>
	<path fill="#5BC4F1" d="M820.253,96.369v-0.014c0-1.411,1.062-2.565,2.585-2.565c0.934,0,1.494,0.313,1.954,0.766l-0.694,0.8
		c-0.383-0.349-0.77-0.561-1.268-0.561c-0.835,0-1.437,0.693-1.437,1.544v0.015c0,0.849,0.587,1.558,1.437,1.558
		c0.568,0,0.914-0.226,1.302-0.58l0.693,0.701c-0.507,0.544-1.075,0.885-2.029,0.885C821.336,98.917,820.253,97.792,820.253,96.369z
		"/>
	<path fill="#5BC4F1" d="M825.742,96.369v-0.014c0-1.411,1.113-2.565,2.643-2.565c1.53,0,2.626,1.141,2.626,2.551v0.015
		c0,1.408-1.11,2.562-2.641,2.562C826.841,98.917,825.742,97.778,825.742,96.369z M829.871,96.369v-0.014
		c0-0.851-0.623-1.56-1.501-1.56c-0.877,0-1.486,0.694-1.486,1.545v0.015c0,0.849,0.623,1.556,1.501,1.556
		C829.262,97.911,829.871,97.218,829.871,96.369z"/>
	<path fill="#5BC4F1" d="M832.388,93.876h1.007l2.321,3.052v-3.052h1.077v4.958h-0.929l-2.399-3.153v3.153h-1.077V93.876z"/>
	<path fill="#5BC4F1" d="M838.389,93.876h3.774v0.99h-2.684v1.056h2.364v0.99h-2.364v1.92h-1.09L838.389,93.876L838.389,93.876z"/>
	<path fill="#5BC4F1" d="M843.439,93.876h3.739v0.972h-2.657v1.004h2.338v0.97h-2.338v1.042h2.692v0.971h-3.774V93.876z"/>
	<path fill="#5BC4F1" d="M848.591,93.876h2.267c0.629,0,1.116,0.178,1.444,0.502c0.273,0.276,0.425,0.665,0.425,1.133v0.015
		c0,0.8-0.433,1.302-1.063,1.537l1.211,1.77h-1.273l-1.063-1.586h-0.858v1.586h-1.089V93.876L848.591,93.876z M850.784,96.283
		c0.531,0,0.836-0.284,0.836-0.698v-0.016c0-0.468-0.325-0.711-0.858-0.711h-1.083v1.425H850.784L850.784,96.283z"/>
	<path fill="#5BC4F1" d="M854.114,93.876h3.739v0.972h-2.654v1.004h2.336v0.97h-2.336v1.042h2.688v0.971h-3.773V93.876z"/>
	<path fill="#5BC4F1" d="M859.265,93.876h1.007l2.32,3.052v-3.052h1.078v4.958h-0.928l-2.399-3.153v3.153h-1.078V93.876z"/>
	<path fill="#5BC4F1" d="M865.048,96.369v-0.014c0-1.411,1.061-2.565,2.584-2.565c0.933,0,1.494,0.313,1.953,0.766l-0.692,0.8
		c-0.386-0.349-0.772-0.561-1.27-0.561c-0.835,0-1.436,0.693-1.436,1.544v0.015c0,0.849,0.587,1.558,1.436,1.558
		c0.566,0,0.913-0.226,1.303-0.58l0.693,0.701c-0.509,0.544-1.075,0.885-2.032,0.885C866.129,98.917,865.048,97.792,865.048,96.369z
		"/>
	<path fill="#5BC4F1" d="M870.946,93.876h1.092v4.958h-1.092V93.876z"/>
	<path fill="#5BC4F1" d="M875.381,93.84h1.006l2.125,4.994h-1.141l-0.454-1.112h-2.095l-0.453,1.112h-1.112L875.381,93.84z
		 M876.527,96.757l-0.659-1.606l-0.656,1.606H876.527z"/>
	<path fill="#5BC4F1" d="M882.211,93.876h1.176l1.302,2.095l1.304-2.095h1.176v4.958h-1.086v-3.236l-1.394,2.116h-0.027
		l-1.382-2.096v3.216h-1.068V93.876L882.211,93.876z"/>
	<path fill="#5BC4F1" d="M888.813,93.876h1.091v4.958h-1.091V93.876z"/>
	<path fill="#5BC4F1" d="M891.548,93.876h1.005l2.324,3.052v-3.052h1.075v4.958h-0.928l-2.4-3.153v3.153h-1.076V93.876z"/>
	<path fill="#5BC4F1" d="M897.599,93.876h1.088v4.958h-1.088V93.876z"/>
	<path fill="#5BC4F1" d="M899.993,98.11l0.644-0.771c0.446,0.367,0.914,0.603,1.48,0.603c0.447,0,0.716-0.178,0.716-0.466v-0.018
		c0-0.274-0.17-0.417-0.999-0.629c-0.998-0.254-1.641-0.53-1.641-1.516v-0.013c0-0.9,0.72-1.497,1.733-1.497
		c0.721,0,1.338,0.228,1.841,0.631l-0.567,0.822c-0.438-0.305-0.87-0.489-1.288-0.489s-0.638,0.191-0.638,0.433v0.015
		c0,0.326,0.213,0.431,1.069,0.65c1.005,0.263,1.571,0.623,1.571,1.487v0.015c0,0.983-0.751,1.537-1.819,1.537
		C901.345,98.904,900.586,98.641,899.993,98.11z"/>
	<path fill="#5BC4F1" d="M906.319,94.88h-1.509v-1.004h4.107v1.004h-1.51v3.954h-1.089V94.88L906.319,94.88z"/>
	<path fill="#5BC4F1" d="M910.158,93.876h3.738v0.972h-2.654v1.004h2.337v0.97h-2.337v1.042h2.69v0.971h-3.774V93.876z"/>
	<path fill="#5BC4F1" d="M915.311,93.876h2.266c0.629,0,1.117,0.178,1.443,0.502c0.276,0.276,0.425,0.665,0.425,1.133v0.015
		c0,0.8-0.433,1.302-1.063,1.537l1.213,1.77h-1.277l-1.061-1.586h-0.857v1.586h-1.088V93.876L915.311,93.876z M917.504,96.283
		c0.532,0,0.836-0.284,0.836-0.698v-0.016c0-0.468-0.328-0.711-0.856-0.711h-1.085v1.425H917.504L917.504,96.283z"/>
	<path fill="#5BC4F1" d="M920.882,93.876h1.092v4.958h-1.092V93.876z"/>
	<path fill="#5BC4F1" d="M925.317,93.84h1.006l2.122,4.994h-1.139l-0.453-1.112h-2.098l-0.452,1.112h-1.11L925.317,93.84z
		 M926.463,96.757l-0.657-1.606l-0.657,1.606H926.463z"/>
	<path fill="#5BC4F1" d="M929.618,93.876h1.091v3.967h2.471v0.991h-3.562V93.876z"/>
	<path fill="#5BC4F1" d="M936.937,93.876h1.933c1.56,0,2.636,1.068,2.636,2.465v0.015c0,1.393-1.076,2.479-2.636,2.479h-1.933
		V93.876z M938.026,94.86v2.988h0.841c0.895,0,1.497-0.603,1.497-1.479v-0.014c0-0.879-0.603-1.497-1.497-1.497h-0.841V94.86z"/>
	<path fill="#5BC4F1" d="M942.88,93.876h3.738v0.972h-2.656v1.004h2.338v0.97h-2.338v1.042h2.692v0.971h-3.774V93.876z"/>
	<path fill="#5BC4F1" d="M950.557,93.876h1.092v3.967h2.471v0.991h-3.563V93.876z"/>
	<path fill="#5BC4F1" d="M957.048,93.84h1.004l2.124,4.994h-1.141l-0.451-1.112h-2.097l-0.453,1.112h-1.11L957.048,93.84z
		 M958.194,96.757l-0.659-1.606l-0.658,1.606H958.194z"/>
	<path fill="#5BC4F1" d="M963.658,96.369v-0.014c0-1.411,1.11-2.565,2.641-2.565c1.529,0,2.626,1.141,2.626,2.551v0.015
		c0,1.408-1.11,2.562-2.641,2.562C964.755,98.917,963.658,97.778,963.658,96.369z M967.784,96.369v-0.014
		c0-0.851-0.621-1.56-1.5-1.56c-0.878,0-1.485,0.694-1.485,1.545v0.015c0,0.849,0.623,1.556,1.5,1.556
		S967.784,97.218,967.784,96.369z"/>
	<path fill="#5BC4F1" d="M970.303,93.876h1.174l1.304,2.095l1.304-2.095h1.175v4.958h-1.084v-3.236l-1.395,2.116h-0.028
		l-1.379-2.096v3.216h-1.07V93.876z"/>
	<path fill="#5BC4F1" d="M976.636,96.369v-0.014c0-1.411,1.062-2.565,2.584-2.565c0.935,0,1.493,0.313,1.954,0.766l-0.693,0.8
		c-0.383-0.349-0.771-0.561-1.266-0.561c-0.838,0-1.44,0.693-1.44,1.544v0.015c0,0.849,0.587,1.558,1.44,1.558
		c0.564,0,0.911-0.226,1.301-0.58l0.693,0.701c-0.51,0.544-1.076,0.885-2.032,0.885C977.72,98.917,976.636,97.792,976.636,96.369z"
		/>
</g>
<rect x="808.229" y="103.75" fill="#0090D1" width="173.029" height="0.911"/>
<polygon fill="#0090D1" points="792.098,79.607 792.089,79.607 794.704,73.227 796.084,76.599 796.092,76.618 797.319,79.607 
	797.315,79.607 800.683,87.842 805.185,87.842 796.755,68.028 792.766,68.028 784.334,87.842 788.746,87.842 "/>
<path fill="#0090D1" d="M810.824,68.167h8.993c2.5,0,4.438,0.705,5.732,1.996c1.095,1.097,1.685,2.644,1.685,4.499v0.054
	c0,3.177-1.712,5.174-4.215,6.101l4.809,7.026h-5.063l-4.213-6.295h-3.402v6.295h-4.326V68.167z M819.537,77.724
	c2.106,0,3.317-1.123,3.317-2.784v-0.054c0-1.858-1.296-2.813-3.403-2.813h-4.301v5.649h4.387V77.724z"/>
<path fill="#0090D1" d="M832.945,78.061v-0.057c0-5.592,4.354-10.173,10.315-10.173c3.54,0,5.677,0.955,7.731,2.7l-2.729,3.287
	c-1.516-1.266-2.866-1.996-5.142-1.996c-3.15,0-5.65,2.782-5.65,6.126v0.057c0,3.601,2.474,6.237,5.96,6.237
	c1.572,0,2.977-0.388,4.074-1.178v-2.812h-4.356v-3.738h8.545v8.545c-2.025,1.714-4.809,3.12-8.402,3.12
	C837.16,88.179,832.945,83.878,832.945,78.061"/>
<polygon fill="#0090D1" points="857.821,68.167 872.659,68.167 872.659,72.02 862.122,72.02 862.122,76.009 871.397,76.009 
	871.397,79.859 862.122,79.859 862.122,83.991 872.801,83.991 872.801,87.842 857.821,87.842 "/>
<polygon fill="#0090D1" points="879.563,68.167 883.555,68.167 892.772,80.282 892.772,68.167 897.045,68.167 897.045,87.842 
	893.363,87.842 883.833,75.333 883.833,87.842 879.563,87.842 "/>
<polygon fill="#0090D1" points="909.922,72.16 903.934,72.16 903.934,68.167 920.236,68.167 920.236,72.16 914.251,72.16 
	914.251,87.842 909.922,87.842 "/>
<rect x="926.617" y="68.167" fill="#0090D1" width="4.327" height="19.675"/>
<polygon fill="#0090D1" points="937.521,68.167 941.512,68.167 950.731,80.282 950.731,68.167 955.004,68.167 955.004,87.842 
	951.318,87.842 941.793,75.333 941.793,87.842 937.521,87.842 "/>
<path fill="#0090D1" d="M968.832,68.028h3.99l8.437,19.814h-4.528l-1.8-4.411h-8.317l-1.798,4.411h-4.41L968.832,68.028z
	 M973.387,79.607l-2.612-6.381l-2.615,6.381H973.387z"/>
<path fill="#0090D1" d="M782.673,67.208l-2.174-0.127l-0.005,0.011c-2.564-0.242-6.966-0.762-9.097-1.05
	c-8.324-1.118-14.996-2.802-19.708-4.807h-0.002c0,0-2.427-0.833-4.783-2.612c-0.777-0.561-1.417-1.138-1.922-1.727
	c-0.683-0.748-1.286-1.597-1.723-2.553c-1.073,3.56-1.177,4.043-1.637,6.708c-0.696,5.459-0.725,5.674-0.729,8.825
	c0.063,1.503,0.11,3.512,0.246,5.011c0.513,5.208,11.158,10.146,29.173,12.568c0.757,0.101,2.128,0.274,3.528,0.445L782.673,67.208z
	"/>
<path fill="#5BC4F1" d="M788.763,117.696c-6.107-0.212-12.821-1.042-19.709-2.942c0,0,0.049,0.022,0.141,0.063
	c0.123,0.061,0.248,0.121,0.38,0.18c-0.128-0.059-0.248-0.117-0.368-0.174c0.271,0.125,0.912,0.411,1.879,0.784
	c-0.54-0.197-1.047-0.399-1.511-0.61c1.186,0.558,2.608,1.227,3.743,1.675c3.401,1.268,6.676,2.388,12.279,3.21
	c1.799,0.216,1.799,0.216,2.685,0.292c0.149,0.007,0.313,0.021,0.481,0.032V117.696z"/>
<path fill="#0090D1" d="M794.659,107.388c-8.402-0.012-24.187-0.585-35.58-4.307c-4.096-1.3-7.643-2.991-10.095-5.182
	c1.31,2.194,7.282,11.089,19.544,14.113c0.405,0.095,0.856,0.196,1.349,0.303c0.141,0.03,0.28,0.063,0.423,0.089
	c0.036,0.008,0.075,0.014,0.112,0.021c0.303,0.059,0.583,0.113,0.851,0.17c4.938,0.947,13.169,2.016,24.4,1.732
	c0.34-0.008,0.678-0.018,1.013-0.027c0.639-0.021,1.294-0.047,1.953-0.075v-6.876C798.629,107.352,797.137,107.397,794.659,107.388z
	"/>
<path fill="#5BC4F1" d="M770.391,91.093c-4.181-0.566-7.953-1.27-11.295-2.082l0.002,0.001c0,0-0.591-0.134-1.56-0.396
	c-3.91-1.032-7.157-2.223-9.677-3.513c-2.256-1.099-4.347-2.421-5.717-3.946c0.838,3.702,0.969,4.087,1.877,6.623
	c0.584,1.437,1.346,3.359,2,4.762c1.525,3.15,7.115,6.099,16.003,8.225c0.094,0.026,0.208,0.057,0.308,0.083v0.004
	c0.017,0,0.033,0.006,0.051,0.01c0.785,0.208,1.779,0.426,3.057,0.647c0.016,0.002,0.032,0.008,0.048,0.008
	c2.125,0.419,4.396,0.796,6.816,1.119c0.24,0.036,0.484,0.06,0.729,0.093c2.094,0.298,4.092,0.535,5.966,0.729
	c0.435,0.05,0.822,0.091,1.121,0.116v-0.002c9.873,0.953,16.23,0.646,16.23,0.646V92.214
	C784.318,92.43,775.688,91.746,770.391,91.093z"/>
<path fill="#67B2E8" d="M754.208,44.946"/>
<path fill="#0090D1" d="M832.52,35.197c-1.156-1.213-2.697-2.833-3.914-3.983c-2.64-2.258-3.53-3.019-5.19-4.178
	c-0.017,0.01-0.034,0.02-0.051,0.027c-0.009,0.012-0.014,0.022-0.025,0.034c0,0.004-0.005,0.004-0.007,0.007
	c0,0.006,0.002,0.012,0.002,0.012c0.051,0.14,0.096,0.278,0.14,0.42c1.208,1.756,0.464,3.636-2.591,5.372
	c-7.505,4.263-25.985,6.05-41.287,3.994c-8.849-1.191-14.692-3.405-16.596-5.888l0,0h-0.002c0-0.002,0-0.005-0.002-0.007
	c-0.015-0.019-0.05-0.064-0.093-0.133c-0.356-0.506-0.551-1.024-0.573-1.544c-0.081-0.536-0.061-1.165,0.183-1.845
	c-1.697,1.216-3.134,2.334-4.765,3.868c-1.188,1.18-2.771,2.757-3.896,3.996c-4.448,5.034,4.104,10.4,21.514,12.74
	c20.084,2.702,44.346,0.354,54.193-5.24C833.922,40.371,834.724,37.671,832.52,35.197z"/>
<path fill="#5BC4F1" d="M772.027,24.372h-0.003c0,0-0.011-0.083,0-0.224c0.005-0.178,0.036-0.356,0.097-0.536
	c0.119-0.429,0.387-1.009,0.957-1.643c-1.644,0.658-3.238,1.418-4.764,2.285l-0.532,0.306c-4.208,2.443-3.634,5.179,0.705,7.375
	c1.974-1.757,4.056-3.364,6.229-4.807C773.055,26.284,772.128,25.339,772.027,24.372z"/>
<path fill="#5BC4F1" d="M841.351,49.097c-0.637-1.328-1.46-3.113-2.157-4.411c-1.769-2.946-2.408-4.011-3.167-5.082
	c-0.188,0.784-0.458,1.45-0.749,2.005c-0.232,0.533-0.6,1.063-1.1,1.593c-0.278,0.307-0.475,0.463-0.475,0.463v-0.003
	c-0.651,0.586-1.462,1.166-2.463,1.732c-10.3,5.854-35.681,8.309-56.691,5.481c-9.677-1.3-16.729-3.494-20.525-6.053l0.002,0.004
	c0,0-0.41-0.24-0.964-0.715c-0.794-0.648-1.373-1.317-1.746-2.001c-0.403-0.633-0.749-1.384-0.963-2.241
	c-1.602,2.266-2.204,3.208-3.128,4.979c-0.653,1.32-1.552,3.067-2.142,4.416c-2.378,5.523,7.807,11.086,26.798,13.639
	c24.035,3.232,53.071,0.424,64.855-6.27C841.018,54.203,842.436,51.587,841.351,49.097z"/>
<path fill="#67B2E8" d="M801.426,79.712"/>
<path fill="#67B2E8" d="M795.869,79.712"/>
<path fill="#0090D1" d="M775.888,83.104c-0.482-0.039-0.978-0.085-1.497-0.132c-1.729-0.163-3.637-0.376-5.659-0.646
	c-0.045-0.006-0.091-0.014-0.136-0.019c-0.375-0.054-0.763-0.108-1.146-0.163c-8.104-1.192-20.028-3.7-26.404-8.609
	c0.027,0.474,0.056,0.935,0.095,1.352c0.002,0.021,0.008,0.039,0.01,0.059c8.306,6.538,27.677,8.923,34.145,9.55L775.888,83.104z"/>
<path fill="#0090D1" d="M776.776,20.64c-4.676,2.657-0.737,5.849,8.798,7.133c3.788,0.51,7.895,0.641,11.753,0.446
	c-0.218-0.833-0.442-1.629-0.667-2.38c-3.078,0.152-6.35,0.049-9.37-0.359c-7.603-1.023-10.741-3.566-7.014-5.684
	C779.088,20.027,777.92,20.307,776.776,20.64"/>
<rect x="815.361" y="96.348" fill="#5BC4F1" width="1.682" height="0.241"/>
<polygon fill="#0090D1" points="790.491,83.535 786.174,83.535 785.54,85.019 789.891,85.019 "/>
<polygon fill="#0090D1" points="803.352,83.535 798.931,83.535 799.535,85.019 803.983,85.019 "/>
<path fill="#FFD13F" d="M806.074,79.718h-22.65c-0.085-0.002-2.396-0.054-5.962-0.332c0,0-0.102-0.008-0.29-0.021
	c-0.016,0-0.038-0.002-0.056-0.004c-0.06-0.008-0.13-0.014-0.203-0.021c-0.095-0.005-0.192-0.013-0.309-0.022
	c-4.612-0.397-26.898-2.645-35.71-9.869l0.06,2.033l0,0c0.02,0.694,0.047,1.419,0.081,2.046c6.374,4.917,18.308,7.424,26.415,8.617
	c0.383,0.055,0.771,0.109,1.146,0.163c0.046,0.007,0.092,0.013,0.136,0.019c2.021,0.272,3.93,0.485,5.659,0.646
	c5.026,0.476,8.55,0.555,9,0.563h24.307L806.074,79.718z"/>
<g>
	<path fill="#5BC4F1" d="M21.949,84.878l2.366-2.834c1.638,1.352,3.354,2.21,5.434,2.21c1.638,0,2.626-0.65,2.626-1.716v-0.053
		c0-1.014-0.624-1.533-3.666-2.313c-3.666-0.937-6.032-1.95-6.032-5.564v-0.052c0-3.303,2.652-5.486,6.37-5.486
		c2.652,0,4.915,0.832,6.76,2.314l-2.08,3.016c-1.612-1.118-3.198-1.794-4.732-1.794c-1.534,0-2.34,0.702-2.34,1.586v0.052
		c0,1.196,0.78,1.586,3.926,2.393c3.692,0.962,5.772,2.288,5.772,5.46v0.052c0,3.614-2.756,5.643-6.682,5.643
		C26.916,87.79,24.133,86.828,21.949,84.878z"/>
	<path fill="#5BC4F1" d="M40.02,69.329h4.004V87.53H40.02V69.329z"/>
	<path fill="#5BC4F1" d="M47.325,84.878l2.366-2.834c1.638,1.352,3.354,2.21,5.434,2.21c1.638,0,2.626-0.65,2.626-1.716v-0.053
		c0-1.014-0.624-1.533-3.666-2.313c-3.666-0.937-6.032-1.95-6.032-5.564v-0.052c0-3.303,2.652-5.486,6.37-5.486
		c2.652,0,4.915,0.832,6.76,2.314l-2.08,3.016c-1.612-1.118-3.198-1.794-4.732-1.794c-1.534,0-2.34,0.702-2.34,1.586v0.052
		c0,1.196,0.78,1.586,3.926,2.393c3.692,0.962,5.772,2.288,5.772,5.46v0.052c0,3.614-2.756,5.643-6.682,5.643
		C52.292,87.79,49.509,86.828,47.325,84.878z"/>
	<path fill="#5BC4F1" d="M69.062,73.021h-5.538v-3.692h15.08v3.692h-5.538V87.53h-4.004V73.021z"/>
	<path fill="#5BC4F1" d="M81.671,69.329h13.729v3.563h-9.75v3.692h8.581v3.562h-8.581v3.822h9.88v3.563H81.671V69.329z"/>
	<path fill="#5BC4F1" d="M99.091,69.329h4.316l4.784,7.696l4.784-7.696h4.316V87.53h-3.978V75.647l-5.122,7.774h-0.104l-5.07-7.696
		V87.53h-3.926V69.329z"/>
	<path fill="#5BC4F1" d="M127.899,69.199h3.692l7.801,18.331h-4.187l-1.664-4.082h-7.696l-1.664,4.082h-4.082L127.899,69.199z
		 M132.111,79.912l-2.418-5.902l-2.418,5.902H132.111z"/>
	<path fill="#5BC4F1" d="M149.999,69.329h7.098c5.72,0,9.672,3.927,9.672,9.049v0.052c0,5.122-3.952,9.101-9.672,9.101h-7.098
		V69.329z M157.097,83.916c3.276,0,5.486-2.21,5.486-5.435V78.43c0-3.225-2.21-5.486-5.486-5.486h-3.094v10.973H157.097z"/>
	<path fill="#5BC4F1" d="M170.331,69.329h13.729v3.563h-9.75v3.692h8.581v3.562h-8.581v3.822h9.88v3.563h-13.858V69.329z"/>
	<path fill="#5BC4F1" d="M194.744,78.481V78.43c0-5.174,3.9-9.412,9.491-9.412c3.432,0,5.486,1.144,7.176,2.808l-2.548,2.938
		c-1.404-1.274-2.834-2.055-4.654-2.055c-3.068,0-5.278,2.549-5.278,5.669v0.052c0,3.12,2.158,5.72,5.278,5.72
		c2.08,0,3.354-0.832,4.784-2.132l2.548,2.574c-1.872,2.002-3.952,3.25-7.462,3.25C198.722,87.842,194.744,83.708,194.744,78.481z"
		/>
	<path fill="#5BC4F1" d="M213.412,78.481V78.43c0-5.174,4.082-9.412,9.698-9.412s9.646,4.186,9.646,9.36v0.052
		c0,5.174-4.082,9.412-9.698,9.412S213.412,83.656,213.412,78.481z M228.571,78.481V78.43c0-3.12-2.288-5.721-5.512-5.721
		s-5.46,2.549-5.46,5.669v0.052c0,3.12,2.288,5.72,5.512,5.72C226.335,84.149,228.571,81.602,228.571,78.481z"/>
	<path fill="#5BC4F1" d="M236.318,69.329h3.692l8.528,11.207V69.329h3.952V87.53h-3.406l-8.814-11.57v11.57h-3.952V69.329z"/>
	<path fill="#5BC4F1" d="M255.61,84.878l2.366-2.834c1.638,1.352,3.354,2.21,5.434,2.21c1.638,0,2.626-0.65,2.626-1.716v-0.053
		c0-1.014-0.624-1.533-3.666-2.313c-3.666-0.937-6.032-1.95-6.032-5.564v-0.052c0-3.303,2.652-5.486,6.37-5.486
		c2.652,0,4.914,0.832,6.76,2.314l-2.08,3.016c-1.612-1.118-3.198-1.794-4.732-1.794s-2.34,0.702-2.34,1.586v0.052
		c0,1.196,0.78,1.586,3.926,2.393c3.692,0.962,5.772,2.288,5.772,5.46v0.052c0,3.614-2.756,5.643-6.683,5.643
		C260.576,87.79,257.794,86.828,255.61,84.878z"/>
	<path fill="#5BC4F1" d="M273.211,79.729v-10.4h4.004v10.297c0,2.964,1.482,4.498,3.926,4.498c2.444,0,3.926-1.482,3.926-4.368
		V69.329h4.004V79.6c0,5.513-3.094,8.217-7.982,8.217S273.211,85.086,273.211,79.729z"/>
	<path fill="#5BC4F1" d="M293.154,69.329h4.004V83.89h9.074v3.641h-13.079V69.329z"/>
	<path fill="#5BC4F1" d="M310.886,73.021h-5.538v-3.692h15.08v3.692h-5.538V87.53h-4.004V73.021z"/>
	<path fill="#5BC4F1" d="M327.396,69.199h3.692l7.8,18.331h-4.186l-1.664-4.082h-7.696l-1.664,4.082h-4.082L327.396,69.199z
		 M331.607,79.912l-2.418-5.902l-2.418,5.902H331.607z"/>
	<path fill="#5BC4F1" d="M340.188,84.878l2.366-2.834c1.638,1.352,3.354,2.21,5.434,2.21c1.638,0,2.626-0.65,2.626-1.716v-0.053
		c0-1.014-0.624-1.533-3.666-2.313c-3.666-0.937-6.032-1.95-6.032-5.564v-0.052c0-3.303,2.652-5.486,6.37-5.486
		c2.652,0,4.915,0.832,6.76,2.314l-2.08,3.016c-1.612-1.118-3.198-1.794-4.732-1.794c-1.534,0-2.34,0.702-2.34,1.586v0.052
		c0,1.196,0.78,1.586,3.926,2.393c3.692,0.962,5.772,2.288,5.772,5.46v0.052c0,3.614-2.756,5.643-6.682,5.643
		C345.154,87.79,342.372,86.828,340.188,84.878z"/>
	<path fill="#5BC4F1" d="M372.115,69.199h3.692l7.8,18.331h-4.186l-1.664-4.082h-7.696l-1.664,4.082h-4.082L372.115,69.199z
		 M376.327,79.912l-2.418-5.902l-2.418,5.902H376.327z"/>
	<path fill="#5BC4F1" d="M384.439,78.481V78.43c0-5.174,3.9-9.412,9.491-9.412c3.432,0,5.486,1.144,7.176,2.808l-2.548,2.938
		c-1.404-1.274-2.834-2.055-4.654-2.055c-3.068,0-5.278,2.549-5.278,5.669v0.052c0,3.12,2.158,5.72,5.278,5.72
		c2.08,0,3.354-0.832,4.784-2.132l2.548,2.574c-1.872,2.002-3.952,3.25-7.462,3.25C388.417,87.842,384.439,83.708,384.439,78.481z"
		/>
	<path fill="#5BC4F1" d="M404.433,69.329h8.32c2.314,0,4.108,0.65,5.304,1.847c1.014,1.014,1.56,2.443,1.56,4.16v0.052
		c0,2.938-1.586,4.784-3.9,5.642l4.446,6.501h-4.68l-3.9-5.824h-3.146v5.824h-4.004V69.329z M412.493,78.17
		c1.95,0,3.068-1.04,3.068-2.574v-0.052c0-1.717-1.196-2.601-3.146-2.601h-3.979v5.227H412.493z"/>
	<path fill="#5BC4F1" d="M423.23,69.329h13.729v3.563h-9.75v3.692h8.581v3.562h-8.581v3.822h9.88v3.563H423.23V69.329z"/>
	<path fill="#5BC4F1" d="M440.65,69.329h7.098c5.72,0,9.672,3.927,9.672,9.049v0.052c0,5.122-3.952,9.101-9.672,9.101h-7.098V69.329
		z M447.749,83.916c3.276,0,5.486-2.21,5.486-5.435V78.43c0-3.225-2.21-5.486-5.486-5.486h-3.094v10.973H447.749z"/>
	<path fill="#5BC4F1" d="M461.165,69.329h4.004V87.53h-4.004V69.329z"/>
	<path fill="#5BC4F1" d="M473.957,73.021h-5.539v-3.692h15.081v3.692h-5.539V87.53h-4.004V73.021z"/>
	<path fill="#5BC4F1" d="M490.467,69.199h3.692l7.8,18.331h-4.186l-1.664-4.082h-7.696l-1.664,4.082h-4.082L490.467,69.199z
		 M494.679,79.912l-2.418-5.902l-2.418,5.902H494.679z"/>
	<path fill="#5BC4F1" d="M504.766,69.329h7.098c5.72,0,9.672,3.927,9.672,9.049v0.052c0,5.122-3.952,9.101-9.672,9.101h-7.098
		V69.329z M511.864,83.916c3.276,0,5.486-2.21,5.486-5.435V78.43c0-3.225-2.21-5.486-5.486-5.486h-3.094v10.973H511.864z"/>
	<path fill="#5BC4F1" d="M524.292,78.481V78.43c0-5.174,4.082-9.412,9.698-9.412s9.646,4.186,9.646,9.36v0.052
		c0,5.174-4.082,9.412-9.698,9.412S524.292,83.656,524.292,78.481z M539.451,78.481V78.43c0-3.12-2.288-5.721-5.512-5.721
		s-5.46,2.549-5.46,5.669v0.052c0,3.12,2.288,5.72,5.512,5.72C537.215,84.149,539.451,81.602,539.451,78.481z"/>
	<path fill="#5BC4F1" d="M545.82,84.878l2.366-2.834c1.638,1.352,3.354,2.21,5.434,2.21c1.638,0,2.626-0.65,2.626-1.716v-0.053
		c0-1.014-0.624-1.533-3.666-2.313c-3.666-0.937-6.032-1.95-6.032-5.564v-0.052c0-3.303,2.652-5.486,6.37-5.486
		c2.652,0,4.914,0.832,6.761,2.314l-2.08,3.016c-1.612-1.118-3.198-1.794-4.732-1.794s-2.34,0.702-2.34,1.586v0.052
		c0,1.196,0.779,1.586,3.926,2.393c3.692,0.962,5.772,2.288,5.772,5.46v0.052c0,3.614-2.756,5.643-6.683,5.643
		C550.786,87.79,548.004,86.828,545.82,84.878z"/>
	<path fill="#5BC4F1" d="M570.702,78.481V78.43c0-5.174,4.082-9.412,9.698-9.412s9.646,4.186,9.646,9.36v0.052
		c0,5.174-4.082,9.412-9.698,9.412S570.702,83.656,570.702,78.481z M585.861,78.481V78.43c0-3.12-2.289-5.721-5.513-5.721
		s-5.46,2.549-5.46,5.669v0.052c0,3.12,2.288,5.72,5.512,5.72C583.625,84.149,585.861,81.602,585.861,78.481z"/>
	<path fill="#5BC4F1" d="M593.607,69.329h4.316l4.784,7.696l4.784-7.696h4.316V87.53h-3.979V75.647l-5.122,7.774h-0.104l-5.07-7.696
		V87.53h-3.927V69.329z"/>
	<path fill="#5BC4F1" d="M615.369,78.481V78.43c0-5.174,3.9-9.412,9.49-9.412c3.433,0,5.486,1.144,7.177,2.808l-2.548,2.938
		c-1.404-1.274-2.835-2.055-4.654-2.055c-3.068,0-5.278,2.549-5.278,5.669v0.052c0,3.12,2.158,5.72,5.278,5.72
		c2.08,0,3.354-0.832,4.784-2.132l2.548,2.574c-1.872,2.002-3.952,3.25-7.463,3.25C619.348,87.842,615.369,83.708,615.369,78.481z"
		/>
</g>
<line fill="none" stroke="#5BC4F1" stroke-width="1.5" stroke-miterlimit="10" x1="20.051" y1="104.205" x2="632.954" y2="104.205"/>
</svg>
